<svg width="656" height="159" viewBox="0 0 656 159" fill="none" xmlns="http://www.w3.org/2000/svg">
<path d="M623.995 76.6473C598.563 108.942 569 100.225 569 100.225C569 100.225 590.577 94.0435 609.535 64.0858L616.75 51.2616C620.324 44.2352 623.652 36.0742 626.553 26.8728L645.78 32.935C642.446 43.5098 638.721 52.4515 634.655 60.0779C637.973 62.4831 641.437 65.3868 645.001 68.9266L630.936 83.3655C628.529 80.9454 626.215 78.7061 623.995 76.6473Z" fill="#C2868B"/>
<path d="M588.933 53.8305C588.933 53.8305 598.347 47.4375 613.164 51.2035L605.95 64.0277C594.05 54.84 588.933 53.8305 588.933 53.8305Z" fill="#8CD3F5"/>
<path d="M448.544 23.0081C448.544 48.4961 442.064 66.0641 433.136 78.3041L429.248 83.0561C408.944 105.952 380 105.952 380 105.952C380 105.952 421.472 87.2321 427.52 35.8241L428.8 22.4607C434.964 22.5981 441.629 22.7765 448.544 23.0081Z" fill="#C2868B"/>
<path d="M471.152 91.84L456.608 105.952C449.002 96.2711 436.746 87.7857 430.048 83.5571L434.457 78.1216C442.796 77.1326 456.132 78.5954 471.152 91.84Z" fill="#8CD3F5"/>
<path d="M393.104 36.688V22C393.104 22 406.639 22.0966 427.3 22.5571L426.3 36.0571C405.708 36.9211 393.104 36.688 393.104 36.688Z" fill="#8CD3F5"/>
<path d="M542.026 38.4838C539.154 57.7009 532.289 70.2164 524.178 78.4389L520.711 81.5837C502.823 96.5586 481 93.2972 481 93.2972C481 93.2972 514.378 83.856 524.73 45.7776L527.201 35.8463C531.833 36.6444 536.838 37.5299 542.026 38.4838Z" fill="#C2868B"/>
<path d="M551.316 92.9281L538.76 101.929C534.116 93.7731 525.832 85.9945 521.257 82.0514L525.195 78.4501C531.593 78.6441 541.484 81.2497 551.316 92.9281Z" fill="#8CD3F5"/>
<path d="M498.685 42.5508L500.34 31.4766C500.34 31.4766 510.534 33.0745 526.06 35.7499L523.784 45.8157C508.161 44.1468 498.685 42.5508 498.685 42.5508Z" fill="#8CD3F5"/>
<path d="M292 113.802C292 113.802 344.238 122.783 360.697 38.1113L340.907 34.2646C328.405 98.5809 292 113.802 292 113.802Z" fill="#C2868B"/>
<path d="M267.936 8L261.744 14.912C261.024 13.328 259.728 11.744 258 10.16L251.376 17.504C258 23.552 259.872 27.872 259.872 27.872C259.872 27.872 264.48 22.688 262.32 16.352C268.224 21.824 269.808 25.712 269.808 25.712C269.808 25.712 277.728 16.784 267.936 8Z" fill="#8CD3F5"/>
<path d="M212.352 112.976C212.352 112.976 265.2 110.672 265.2 30.176C219.264 29.168 204 29.168 204 29.168V44C204 44 214.8 43.712 244.608 42.56C240.72 96.272 212.352 112.976 212.352 112.976Z" fill="#C2868B"/>
<path d="M147.712 86.1489C146.986 73.0719 146.695 61.6617 146.695 56.4053L163.695 56.9181C163.695 62.1745 163.55 73.2001 163.114 86.4053L147.712 86.1489Z" fill="#8CD3F5"/>
<path d="M181.592 55.384L163.592 54.952L146.744 54.376C141.272 54.232 135.224 53.944 128.744 53.8V43.864C166.472 43 181.592 43 181.592 43V55.384Z" fill="#C2868B"/>
<path d="M125 87.496C125 87.496 133.496 87.496 147.752 87.784L163.016 88.072C169.64 88.216 177.128 88.36 185.192 88.648V102.328C152.504 104.056 125 104.488 125 104.488V87.496Z" fill="#C2868B"/>
<path d="M50.5287 28.9322C50.1775 35.9565 49.8263 46.3174 49.8263 57.3807H32.6167C27.1729 41.576 26.4705 20.1519 26.4705 20.1519H51.0555V21.9079L50.5287 28.9322Z" fill="#C2868B"/>
<path d="M47.0166 108.834C47.0166 108.834 79.1528 93.7315 81.7869 28.9322L81.9625 21.9079V20.1519H106.548C106.548 110.239 47.0166 108.834 47.0166 108.834Z" fill="#C2868B"/>
<path d="M73.0063 0.834961C73.0063 10.669 74.0599 18.3957 74.5867 21.9079H80.1642V28.9322H52.1157L52.7255 21.9079H67.9136C61.0649 19.0982 51.9333 13.1275 51.9333 0.834961H73.0063Z" fill="#8CD3F5"/>
<path d="M5.72075 121.254C5.43566 121.076 5.25058 120.829 5.16549 120.512C5.10245 120.19 5.15984 119.886 5.33767 119.601L12.5777 107.994C12.7555 107.709 12.9987 107.53 13.3073 107.459C13.638 107.382 13.9458 107.433 14.2309 107.611L22.3559 112.679C22.641 112.856 22.815 113.107 22.8781 113.429C22.9496 113.737 22.8964 114.034 22.7186 114.319C22.5408 114.604 22.2933 114.789 21.9763 114.874C21.6677 114.946 21.3708 114.893 21.0857 114.715L13.9586 110.269L11.7738 113.772L17.9643 117.633C18.2494 117.811 18.4277 118.054 18.4992 118.363C18.5707 118.671 18.5175 118.968 18.3397 119.253C18.1619 119.538 17.9144 119.724 17.5974 119.809C17.2888 119.88 16.9919 119.827 16.7068 119.649L10.5164 115.788L7.98873 119.84L15.0752 124.26C15.3603 124.438 15.5343 124.688 15.5974 125.01C15.6689 125.319 15.6157 125.616 15.4379 125.901C15.2601 126.186 15.0126 126.371 14.6955 126.456C14.3869 126.528 14.0901 126.475 13.805 126.297L5.72075 121.254Z" fill="#8CD3F5"/>
<path d="M19.1226 129.571C18.8554 129.426 18.6697 129.198 18.5656 128.887C18.4756 128.583 18.4992 128.305 18.6366 128.051L23.2839 119.487C23.4365 119.206 23.6717 119.024 23.9895 118.942C24.3073 118.859 24.6068 118.894 24.8881 119.047C25.1553 119.192 25.3268 119.412 25.4028 119.708C25.4929 120.012 25.4616 120.305 25.309 120.586L24.439 122.189C25.2907 121.559 26.1371 121.19 26.9784 121.082C27.8273 120.96 28.6103 121.094 29.3275 121.483C30.1151 121.91 30.6417 122.433 30.9073 123.05C31.173 123.668 31.1824 124.456 30.9355 125.414C30.6962 126.358 30.1759 127.568 29.3746 129.045L27.3504 132.725C27.2054 132.992 26.9843 133.182 26.687 133.294C26.3973 133.391 26.1119 133.364 25.8306 133.211C25.5634 133.066 25.3778 132.838 25.2736 132.527C25.1912 132.209 25.2187 131.923 25.3561 131.67L27.2562 128.169C27.8514 127.072 28.2601 126.201 28.4821 125.557C28.7042 124.913 28.774 124.432 28.6916 124.114C28.6168 123.783 28.4107 123.525 28.0732 123.342C27.6513 123.113 27.1302 123.067 26.5099 123.204C25.8972 123.326 25.2287 123.619 24.5044 124.081C23.8681 124.482 23.3379 124.923 22.9137 125.403C22.4895 125.882 22.0676 126.509 21.6479 127.282L20.6863 129.054C20.5185 129.364 20.2897 129.567 20 129.665C19.7244 129.77 19.432 129.739 19.1226 129.571Z" fill="#8CD3F5"/>
<path d="M34.7091 137.579C33.8381 137.176 33.1373 136.595 32.6066 135.838C32.0759 135.08 31.7682 134.241 31.6837 133.32C31.6058 132.385 31.7688 131.481 32.1725 130.61C32.63 129.623 33.3097 128.766 34.2116 128.037C35.1134 127.309 36.0797 126.822 37.1104 126.577C38.1412 126.332 39.0775 126.404 39.9195 126.794C40.6888 127.151 41.2486 127.56 41.5987 128.022C41.9701 128.477 42.2597 129.07 42.4675 129.801C42.5776 130.134 42.5687 130.438 42.4409 130.714C42.3131 130.99 42.1004 131.182 41.803 131.291C41.5123 131.386 41.2218 131.366 40.9315 131.231C40.7427 131.144 40.6038 131.044 40.5146 130.932C40.4399 130.827 40.3703 130.654 40.3059 130.412C40.1869 130.022 40.0377 129.697 39.8582 129.438C39.6932 129.185 39.4148 128.968 39.0228 128.786C38.5728 128.577 38.0247 128.562 37.3785 128.738C36.7468 128.922 36.1378 129.265 35.5514 129.769C34.9863 130.266 34.549 130.848 34.2395 131.516C33.9703 132.096 33.8582 132.662 33.9032 133.211C33.9693 133.754 34.1518 134.235 34.4506 134.656C34.7562 135.062 35.134 135.369 35.584 135.578C36.1646 135.847 36.6869 135.957 37.1507 135.907C37.6291 135.864 38.1009 135.721 38.5662 135.479C39.0102 135.243 39.4064 135.207 39.7548 135.368C40.0306 135.496 40.223 135.709 40.3321 136.006C40.4478 136.289 40.4485 136.554 40.3341 136.801C40.1996 137.091 40.0053 137.301 39.7515 137.43C39.0681 137.801 38.2693 138.021 37.3551 138.092C36.4476 138.147 35.5656 137.976 34.7091 137.579Z" fill="#8CD3F5"/>
<path d="M46.2488 142.486C45.3958 142.163 44.6979 141.634 44.1551 140.899C43.6272 140.169 43.3113 139.331 43.2073 138.385C43.1089 137.424 43.2381 136.472 43.5948 135.529C43.9967 134.466 44.6098 133.569 45.434 132.838C46.2639 132.091 47.1848 131.601 48.1967 131.368C49.2143 131.12 50.187 131.172 51.1148 131.523C51.9678 131.845 52.6554 132.379 53.1776 133.124C53.7148 133.875 54.0354 134.723 54.1394 135.669C54.2583 136.621 54.1451 137.553 53.7998 138.466C53.3922 139.543 52.7734 140.455 51.9435 141.202C51.1193 141.934 50.1909 142.421 49.1584 142.663C48.1465 142.896 47.1766 142.837 46.2488 142.486ZM47.0131 140.466C47.5368 140.664 48.1061 140.674 48.7209 140.496C49.3356 140.318 49.8984 139.984 50.4092 139.493C50.9199 139.002 51.3027 138.419 51.5575 137.746C51.7726 137.177 51.8614 136.604 51.8237 136.025C51.7917 135.431 51.6378 134.911 51.3619 134.464C51.0917 134.003 50.7247 133.684 50.2608 133.509C49.737 133.311 49.1724 133.311 48.5669 133.51C47.9821 133.699 47.439 134.049 46.9375 134.561C46.4417 135.058 46.0635 135.65 45.8031 136.339C45.5483 137.012 45.4426 137.631 45.4859 138.195C45.5442 138.764 45.7048 139.244 45.9677 139.634C46.2456 140.03 46.5941 140.307 47.0131 140.466Z" fill="#8CD3F5"/>
<path d="M58.4815 146.734C57.6504 146.498 57.0388 146.134 56.6468 145.64C56.2592 145.13 56.0777 144.364 56.1025 143.339C56.1272 142.315 56.393 140.91 56.9001 139.125C57.0705 138.525 57.2815 137.87 57.5331 137.159C57.7847 136.449 58.0189 135.858 58.2358 135.388C58.4066 135.02 58.6051 134.761 58.8312 134.609C59.0573 134.457 59.332 134.427 59.6552 134.518C59.9631 134.606 60.1985 134.773 60.3615 135.018C60.5245 135.264 60.5558 135.564 60.4553 135.918L60.2255 136.552C59.7001 137.816 59.2669 139.049 58.926 140.249C58.4802 141.819 58.3073 142.926 58.4072 143.57C58.5269 144.203 58.8253 144.587 59.3024 144.722C59.8565 144.88 60.4675 144.895 61.1355 144.769C61.8078 144.627 62.3064 144.453 62.6313 144.245C62.7499 144.179 62.8507 144 62.9337 143.708L64.8484 137.141C64.9358 136.833 65.1157 136.61 65.388 136.471C65.6757 136.336 65.958 136.308 66.2351 136.387C66.5275 136.47 66.7531 136.642 66.9117 136.903C67.0858 137.169 67.1291 137.456 67.0417 137.764L64.3799 147.137C64.2969 147.429 64.1071 147.658 63.8107 147.824C63.534 147.978 63.2495 148.014 62.957 147.931C62.6492 147.843 62.3984 147.672 62.2046 147.417C62.0305 147.152 61.985 146.873 62.068 146.58L62.1402 146.326C61.4373 146.576 60.7969 146.752 60.2191 146.854C59.661 146.945 59.0818 146.905 58.4815 146.734Z" fill="#8CD3F5"/>
<path d="M70.0904 149.615C69.7921 149.557 69.5469 149.394 69.3547 149.128C69.1626 148.862 69.0943 148.587 69.15 148.305L71.0287 138.768C71.0905 138.454 71.253 138.209 71.5161 138.032C71.7949 137.859 72.0912 137.803 72.4052 137.865C72.7192 137.927 72.9644 138.09 73.1409 138.353C73.333 138.619 73.3982 138.909 73.3363 139.223L73.1972 139.929C74.2138 138.825 75.3893 138.404 76.7236 138.667C77.5243 138.825 78.0539 139.157 78.3127 139.665C78.5872 140.176 78.6641 140.737 78.5435 141.349L78.4043 142.056C78.3425 142.37 78.18 142.615 77.917 142.791C77.6727 142.955 77.3936 143.006 77.0796 142.944C76.7028 142.87 76.4419 142.705 76.2968 142.448C76.1674 142.194 76.1337 141.91 76.1955 141.596L76.2558 141.29C76.3053 141.039 76.1574 140.879 75.812 140.811C75.5294 140.756 75.1719 140.832 74.7395 141.04C74.3228 141.252 73.9658 141.491 73.6684 141.759C73.2584 142.102 72.9582 142.467 72.7679 142.853C72.5933 143.243 72.4503 143.72 72.339 144.285L71.4341 148.755C71.3784 149.037 71.2112 149.265 70.9324 149.439C70.6536 149.612 70.373 149.671 70.0904 149.615Z" fill="#8CD3F5"/>
<path d="M86.4356 152.388C86.1177 152.352 85.8655 152.234 85.679 152.035C85.5084 151.839 85.4396 151.597 85.4725 151.311L85.511 150.977C84.7787 151.602 83.8325 151.847 82.6721 151.713C81.7979 151.613 81.0358 151.308 80.3858 150.798C79.7359 150.288 79.257 149.621 78.9493 148.796C78.6435 147.956 78.5482 147.035 78.6635 146.034C78.7916 144.921 79.1535 143.875 79.7493 142.897C80.3469 141.903 81.1124 141.13 82.0458 140.577C82.9951 140.026 84.034 139.815 85.1625 139.945C85.8937 140.029 86.5414 140.208 87.1057 140.483C87.6719 140.741 88.2564 141.05 88.8593 141.409L87.7173 151.328C87.6807 151.646 87.5374 151.911 87.2875 152.124C87.0375 152.337 86.7535 152.425 86.4356 152.388ZM83.0943 149.515C83.5553 149.568 84.0113 149.524 84.4624 149.383C84.9295 149.243 85.3216 149.055 85.6388 148.818L86.4268 142.603C85.9878 142.359 85.4981 142.206 84.9576 142.144C84.2742 142.065 83.6454 142.21 83.0715 142.579C82.4994 142.932 82.03 143.442 81.6634 144.108C81.2986 144.759 81.0713 145.473 80.9817 146.252C80.87 147.222 80.9995 147.986 81.3701 148.544C81.7407 149.102 82.3155 149.426 83.0943 149.515Z" fill="#8CD3F5"/>
<path d="M96.9827 156.84C96.0549 156.819 95.1137 156.685 94.1591 156.439C93.9046 156.37 93.6918 156.229 93.5206 156.017C93.3654 155.805 93.2909 155.563 93.2972 155.291C93.3045 154.971 93.4227 154.702 93.6517 154.483C93.8968 154.265 94.1713 154.159 94.4752 154.166C94.6672 154.17 94.9222 154.216 95.2403 154.304C95.3039 154.321 95.5031 154.358 95.8379 154.413C96.1724 154.485 96.5635 154.526 97.0114 154.536C98.659 154.574 99.5656 153.77 99.7313 152.126L99.7924 151.551C99.5121 151.913 99.1458 152.184 98.6935 152.366C98.2416 152.532 97.7597 152.609 97.2478 152.597C96.4001 152.578 95.605 152.351 94.8627 151.918C94.1368 151.47 93.5591 150.84 93.1295 150.03C92.7003 149.204 92.4981 148.247 92.523 147.159C92.549 146.024 92.8213 144.966 93.3398 143.985C93.8744 143.005 94.5803 142.229 95.4577 141.657C96.351 141.085 97.3255 140.812 98.3812 140.836C98.9731 140.849 99.6336 141.009 100.363 141.313C100.501 140.868 100.874 140.653 101.482 140.667C101.818 140.674 102.088 140.777 102.291 140.973C102.511 141.154 102.608 141.453 102.583 141.868L102.111 151.988C102.041 153.635 101.541 154.864 100.61 155.675C99.6795 156.486 98.4703 156.874 96.9827 156.84ZM97.1555 150.338C98.0353 150.358 98.7302 150.062 99.2404 149.45C99.7509 148.821 100.021 147.843 100.052 146.516L100.118 143.612C99.8971 143.479 99.6276 143.369 99.3095 143.282C99.0074 143.195 98.7124 143.148 98.4245 143.141C97.7686 143.126 97.1568 143.288 96.5889 143.628C96.0373 143.951 95.5866 144.413 95.2368 145.013C94.903 145.614 94.7275 146.29 94.7103 147.041C94.6879 148.017 94.9099 148.807 95.3763 149.409C95.8586 150.013 96.4517 150.322 97.1555 150.338Z" fill="#8CD3F5"/>
<path d="M112.715 152.598C111.581 152.654 110.546 152.466 109.611 152.032C108.691 151.581 107.954 150.921 107.397 150.052C106.841 149.166 106.531 148.109 106.47 146.878C106.42 145.871 106.595 144.901 106.997 143.968C107.414 143.018 108.017 142.243 108.804 141.643C109.607 141.042 110.535 140.716 111.59 140.663C112.565 140.614 113.406 140.772 114.113 141.138C114.835 141.486 115.386 141.923 115.764 142.449C116.143 142.975 116.343 143.453 116.365 143.885C116.375 144.092 116.321 144.295 116.203 144.493C116.085 144.692 115.909 144.869 115.677 145.024L109.437 149.037C109.686 149.521 110.097 149.885 110.669 150.129C111.258 150.372 111.904 150.475 112.607 150.44C113.534 150.394 114.308 150.011 114.929 149.291C115.172 149.023 115.429 148.882 115.701 148.868C116.02 148.852 116.289 148.943 116.507 149.14C116.741 149.337 116.866 149.587 116.881 149.89C116.894 150.146 116.81 150.391 116.63 150.624C116.207 151.142 115.629 151.595 114.895 151.984C114.177 152.356 113.45 152.561 112.715 152.598ZM113.977 143.716C113.769 143.39 113.485 143.155 113.125 143.013C112.765 142.855 112.345 142.788 111.866 142.812C110.955 142.857 110.203 143.207 109.611 143.862C109.035 144.515 108.722 145.3 108.672 146.215C108.652 146.457 108.65 146.745 108.667 147.081L113.977 143.716Z" fill="#8CD3F5"/>
<path d="M121.025 152.086C120.723 152.121 120.44 152.04 120.176 151.845C119.928 151.648 119.787 151.398 119.753 151.096L118.656 141.462C118.622 141.16 118.703 140.885 118.9 140.637C119.112 140.372 119.368 140.222 119.67 140.187C119.988 140.151 120.272 140.239 120.522 140.453C120.77 140.65 120.911 140.899 120.945 141.201L121.135 142.871C121.907 140.883 123.112 139.795 124.749 139.609C125.401 139.535 125.987 139.661 126.508 139.988C127.044 140.314 127.459 140.846 127.752 141.586C128.596 139.944 129.749 139.04 131.212 138.873C132.197 138.761 133.02 139.054 133.679 139.752C134.336 140.434 134.751 141.53 134.923 143.04L135.634 149.288C135.669 149.59 135.579 149.866 135.366 150.115C135.169 150.363 134.919 150.504 134.617 150.539C134.299 150.575 134.016 150.495 133.768 150.297C133.52 150.1 133.379 149.85 133.345 149.548L132.617 143.158C132.534 142.426 132.368 141.89 132.12 141.548C131.872 141.206 131.525 141.06 131.08 141.11C130.619 141.163 130.179 141.398 129.759 141.816C129.34 142.235 129.015 142.779 128.786 143.449C128.572 144.117 128.509 144.833 128.595 145.596L129.1 150.032C129.137 150.35 129.056 150.633 128.859 150.88C128.66 151.112 128.401 151.247 128.083 151.283C127.781 151.317 127.498 151.237 127.235 151.041C126.987 150.844 126.846 150.594 126.811 150.292L126.084 143.902C125.997 143.138 125.838 142.593 125.607 142.265C125.393 141.935 125.079 141.794 124.665 141.841C124.157 141.899 123.679 142.162 123.234 142.632C122.786 143.085 122.412 143.619 122.112 144.233C121.88 144.742 121.719 145.244 121.631 145.737C121.558 146.228 121.554 146.76 121.619 147.333L122.042 150.835C122.076 151.137 121.995 151.412 121.798 151.66C121.601 151.908 121.343 152.05 121.025 152.086Z" fill="#8CD3F5"/>
<path d="M144.641 149.078C143.517 149.244 142.469 149.156 141.497 148.814C140.538 148.454 139.74 147.868 139.103 147.057C138.463 146.229 138.054 145.206 137.874 143.987C137.727 142.99 137.808 142.008 138.118 141.04C138.442 140.054 138.967 139.225 139.692 138.552C140.433 137.876 141.326 137.461 142.371 137.307C143.337 137.165 144.189 137.241 144.928 137.537C145.681 137.814 146.271 138.196 146.698 138.683C147.126 139.169 147.371 139.626 147.434 140.054C147.465 140.26 147.43 140.467 147.332 140.675C147.233 140.884 147.076 141.077 146.859 141.255L141.036 145.85C141.33 146.308 141.773 146.63 142.367 146.818C142.977 147.003 143.63 147.044 144.326 146.941C145.244 146.806 145.977 146.35 146.526 145.573C146.742 145.283 146.984 145.118 147.253 145.078C147.57 145.031 147.846 145.096 148.083 145.271C148.335 145.444 148.483 145.681 148.527 145.982C148.564 146.235 148.504 146.487 148.347 146.736C147.976 147.292 147.445 147.799 146.752 148.257C146.073 148.697 145.369 148.971 144.641 149.078ZM145.042 140.116C144.803 139.811 144.497 139.606 144.126 139.499C143.752 139.376 143.327 139.35 142.853 139.42C141.95 139.553 141.236 139.974 140.71 140.682C140.199 141.388 139.963 142.199 140.001 143.115C140.005 143.357 140.031 143.645 140.08 143.977L145.042 140.116Z" fill="#8CD3F5"/>
<path d="M153.161 147.784C152.86 147.83 152.574 147.761 152.303 147.577C152.047 147.39 151.897 147.154 151.853 146.869L150.361 137.24C150.312 136.924 150.389 136.637 150.591 136.379C150.794 136.121 151.054 135.967 151.37 135.918C151.67 135.872 151.941 135.943 152.18 136.133C152.436 136.32 152.588 136.571 152.637 136.887L152.917 138.69C153.212 137.673 153.662 136.866 154.266 136.271C154.868 135.659 155.572 135.291 156.378 135.166C157.263 135.029 157.999 135.125 158.584 135.456C159.17 135.786 159.655 136.407 160.039 137.319C160.421 138.215 160.74 139.493 160.997 141.153L161.617 145.307C161.664 145.608 161.603 145.892 161.434 146.162C161.263 146.415 161.019 146.566 160.703 146.615C160.402 146.661 160.116 146.592 159.845 146.408C159.587 146.205 159.436 145.961 159.391 145.677L158.781 141.74C158.59 140.506 158.388 139.566 158.174 138.919C157.96 138.272 157.725 137.848 157.466 137.645C157.206 137.426 156.886 137.346 156.506 137.405C156.032 137.478 155.59 137.758 155.179 138.242C154.766 138.711 154.411 139.349 154.115 140.156C153.852 140.86 153.697 141.532 153.651 142.171C153.604 142.809 153.648 143.563 153.783 144.433L154.092 146.425C154.145 146.773 154.087 147.074 153.916 147.327C153.76 147.578 153.508 147.73 153.161 147.784Z" fill="#8CD3F5"/>
<path d="M167.171 145.653C166.871 145.698 166.585 145.628 166.314 145.442C166.06 145.253 165.91 145.009 165.865 144.708L164.598 136.234L162.723 136.515C162.407 136.562 162.121 136.491 161.866 136.303C161.609 136.099 161.458 135.846 161.413 135.546C161.361 135.197 161.439 134.903 161.645 134.662C161.85 134.405 162.11 134.252 162.426 134.205L164.254 133.932L163.874 131.392C163.829 131.091 163.9 130.806 164.086 130.535C164.272 130.265 164.523 130.106 164.84 130.059C165.172 130.009 165.459 130.087 165.7 130.294C165.955 130.482 166.106 130.735 166.153 131.051L166.533 133.591L168.55 133.29C168.867 133.242 169.152 133.313 169.407 133.501C169.662 133.69 169.814 133.95 169.864 134.282C169.908 134.583 169.838 134.869 169.652 135.139C169.463 135.394 169.211 135.545 168.895 135.592L166.877 135.894L168.144 144.367C168.189 144.668 168.117 144.946 167.929 145.2C167.74 145.455 167.488 145.606 167.171 145.653Z" fill="#8CD3F5"/>
<path d="M188.681 142.717C187.775 142.82 186.912 142.668 186.093 142.262C185.29 141.854 184.626 141.253 184.101 140.459C183.575 139.649 183.254 138.744 183.141 137.742C183.013 136.613 183.148 135.535 183.547 134.508C183.944 133.464 184.539 132.608 185.332 131.938C186.124 131.252 187.013 130.853 187.998 130.742C188.905 130.639 189.76 130.799 190.565 131.223C191.386 131.645 192.059 132.253 192.584 133.047C193.124 133.839 193.45 134.72 193.56 135.69C193.69 136.835 193.556 137.929 193.159 138.972C192.761 140 192.158 140.857 191.35 141.545C190.556 142.214 189.667 142.605 188.681 142.717ZM188.438 140.571C188.994 140.508 189.505 140.256 189.97 139.817C190.436 139.378 190.783 138.823 191.013 138.153C191.243 137.483 191.318 136.79 191.236 136.074C191.168 135.47 190.985 134.92 190.687 134.422C190.387 133.908 190.012 133.516 189.563 133.245C189.111 132.958 188.639 132.843 188.147 132.899C187.59 132.962 187.088 133.22 186.64 133.673C186.207 134.109 185.884 134.669 185.672 135.353C185.458 136.022 185.392 136.722 185.475 137.453C185.556 138.168 185.745 138.767 186.041 139.249C186.353 139.728 186.715 140.082 187.128 140.309C187.556 140.534 187.992 140.621 188.438 140.571Z" fill="#8CD3F5"/>
<path d="M198.842 141.656C198.539 141.683 198.258 141.595 197.999 141.393C197.756 141.19 197.622 140.945 197.596 140.658L196.826 132.004L195.726 132.102C195.44 132.128 195.175 132.039 194.932 131.836C194.689 131.632 194.554 131.387 194.529 131.1C194.502 130.798 194.59 130.525 194.793 130.282C194.997 130.039 195.234 129.905 195.505 129.881L196.652 129.779C196.581 128.259 196.893 127.163 197.588 126.491C198.298 125.801 199.489 125.382 201.163 125.233C201.609 125.193 201.959 125.243 202.212 125.381C202.465 125.519 202.61 125.795 202.647 126.209C202.676 126.528 202.596 126.808 202.409 127.05C202.236 127.274 201.974 127.402 201.624 127.433C200.907 127.497 200.361 127.593 199.987 127.723C199.628 127.835 199.364 128.036 199.197 128.324C199.03 128.611 198.947 129.029 198.947 129.575L201.388 129.381C201.643 129.359 201.892 129.449 202.134 129.652C202.393 129.854 202.536 130.098 202.561 130.385C202.587 130.672 202.498 130.937 202.295 131.18C202.107 131.422 201.87 131.555 201.583 131.581L199.121 131.8L199.891 140.454C199.917 140.741 199.82 141.006 199.601 141.251C199.398 141.494 199.145 141.629 198.842 141.656Z" fill="#8CD3F5"/>
<path d="M220.063 140.256C219.503 140.266 219.131 140 218.945 139.459L214.527 125.832C214.441 125.545 214.397 125.29 214.393 125.066C214.388 124.762 214.495 124.512 214.716 124.316C214.936 124.104 215.206 123.995 215.526 123.99C216.118 123.979 216.507 124.252 216.693 124.809L220.02 135.096L223.195 124.67C223.362 124.123 223.741 123.844 224.333 123.833C224.909 123.823 225.281 124.097 225.451 124.654L228.491 134.969L232.142 124.271C232.34 123.707 232.719 123.421 233.279 123.411C233.598 123.405 233.872 123.504 234.1 123.708C234.327 123.896 234.444 124.142 234.449 124.446C234.454 124.718 234.418 124.975 234.343 125.216L229.528 139.32C229.452 139.561 229.32 139.755 229.13 139.903C228.941 140.034 228.718 140.102 228.462 140.107C227.838 140.118 227.449 139.837 227.295 139.263L224.308 129.187L221.201 139.419C221.11 139.725 220.97 139.944 220.78 140.075C220.606 140.19 220.367 140.25 220.063 140.256Z" fill="#8CD3F5"/>
<path d="M243.241 140.294C242.106 140.258 241.09 139.986 240.194 139.478C239.314 138.954 238.632 138.236 238.148 137.324C237.665 136.397 237.443 135.317 237.481 134.086C237.513 133.078 237.767 132.126 238.243 131.228C238.736 130.315 239.399 129.592 240.232 129.058C241.081 128.524 242.034 128.274 243.089 128.307C244.065 128.338 244.89 128.563 245.565 128.985C246.257 129.391 246.77 129.871 247.105 130.426C247.439 130.981 247.6 131.474 247.587 131.906C247.58 132.114 247.51 132.311 247.376 132.499C247.242 132.687 247.053 132.849 246.808 132.986L240.264 136.478C240.472 136.981 240.852 137.377 241.403 137.667C241.97 137.957 242.606 138.113 243.309 138.135C244.237 138.164 245.039 137.845 245.716 137.178C245.98 136.93 246.248 136.81 246.52 136.819C246.84 136.829 247.1 136.941 247.302 137.155C247.519 137.37 247.623 137.63 247.614 137.933C247.606 138.189 247.502 138.426 247.303 138.644C246.84 139.126 246.227 139.531 245.464 139.859C244.718 140.172 243.977 140.317 243.241 140.294ZM245.221 131.543C245.039 131.201 244.775 130.945 244.428 130.774C244.082 130.587 243.669 130.486 243.189 130.471C242.278 130.443 241.5 130.73 240.857 131.334C240.23 131.939 239.854 132.696 239.729 133.604C239.69 133.843 239.665 134.13 239.654 134.466L245.221 131.543Z" fill="#8CD3F5"/>
<path d="M250.122 140.544C249.803 140.523 249.546 140.402 249.352 140.181C249.159 139.96 249.072 139.698 249.091 139.394L250.004 125.48C250.025 125.161 250.154 124.913 250.39 124.736C250.627 124.543 250.905 124.457 251.224 124.478C251.528 124.498 251.784 124.619 251.994 124.841C252.205 125.047 252.3 125.31 252.279 125.63L251.971 130.323C252.468 129.843 253.003 129.509 253.576 129.322C254.15 129.136 254.772 129.064 255.442 129.108C256.241 129.16 256.953 129.416 257.581 129.874C258.209 130.316 258.689 130.949 259.02 131.772C259.366 132.596 259.503 133.575 259.428 134.709C259.294 136.753 258.721 138.286 257.707 139.31C256.695 140.318 255.375 140.769 253.746 140.662C253.299 140.632 252.825 140.529 252.324 140.352C251.839 140.16 251.468 139.959 251.209 139.75L251.199 139.893C251.189 140.053 251.075 140.206 250.857 140.352C250.654 140.499 250.41 140.563 250.122 140.544ZM253.726 138.4C254.844 138.473 255.673 138.175 256.214 137.505C256.771 136.836 257.092 135.855 257.177 134.561C257.242 133.571 257.1 132.808 256.75 132.272C256.4 131.736 255.898 131.447 255.244 131.404C254.637 131.364 254.071 131.439 253.545 131.629C253.02 131.819 252.593 132.096 252.264 132.459C251.952 132.824 251.78 133.237 251.75 133.7L251.478 137.843C252.275 138.168 253.024 138.354 253.726 138.4Z" fill="#8CD3F5"/>
<path d="M262.128 141.442C261.761 141.409 261.47 141.254 261.254 140.977C261.056 140.686 260.974 140.349 261.008 139.967C261.044 139.568 261.219 139.231 261.534 138.954C261.849 138.661 262.19 138.531 262.557 138.565C262.907 138.596 263.19 138.759 263.405 139.051C263.62 139.328 263.712 139.649 263.679 140.016C263.64 140.446 263.463 140.799 263.149 141.076C262.835 141.353 262.494 141.475 262.128 141.442Z" fill="#8CD3F5"/>
</svg>
